<svg xmlns="http://www.w3.org/2000/svg" width="59.144" height="59" viewBox="0 0 59.144 59">
  <path id="address" d="M23.623,52.975v5.99L22.174,57.8a97.107,97.107,0,0,1-10.949-10.7C3.777,38.54,0,30.863,0,24.275v-.653a23.623,23.623,0,0,1,47.246,0v.653c0,.553-.029,1.115-.083,1.684l-4.62-4.215A19.014,19.014,0,0,0,4.609,23.622v.653c0,11.132,14.343,24.608,19.014,28.7ZM37.8,49.665h6.914V42.751H37.8ZM23.623,13.827a9.795,9.795,0,1,1-9.795,9.795A9.806,9.806,0,0,1,23.623,13.827Zm0,4.609a5.186,5.186,0,1,0,5.186,5.186A5.191,5.191,0,0,0,23.623,18.437Zm32.415,28.1-1.3-1.182v7.4A6.256,6.256,0,0,1,48.493,59H33.9A6.256,6.256,0,0,1,27.65,52.75v-7.4l-1.3,1.182-3.106-3.405L41.2,26.754,59.144,43.128Zm-5.905-5.387L41.2,32.993,32.26,41.145v11.6a1.642,1.642,0,0,0,1.64,1.64H48.493a1.642,1.642,0,0,0,1.64-1.64Zm0,0" transform="translate(0 0.001)" fill="#ff000a"/>
</svg>
