<svg width="90.5" height="43" xmlns="http://www.w3.org/2000/svg">
 <style type="text/css">.st0{fill:#ED1C24;}
	.st1{fill:#FFFFFF;}</style>

 <g>
  <title>background</title>
  <rect fill="none" id="canvas_background" height="45" width="92.5" y="-1" x="-1"/>
 </g>
 <g>
  <title>Layer 1</title>
  <polygon id="svg_1" points="4.3000030517578125,4.600006103515625 36.399993896484375,4.600006103515625 36.399993896484375,36.600006103515625 4.3000030517578125,36.600006103515625 4.3000030517578125,4.600006103515625 " class="st0"/>
  <path id="svg_2" d="m35.9,29.7l0.9,1.7l-17.9,9.2l-9.2,-17.9l1.7,-0.9l8.3,16.2l16.2,-8.3l0,0zm-15,-28.4l-17.9,9.2l0.9,1.7l16.2,-8.3l8.3,16.2l1.7,-0.9l-9.2,-17.9l0,0zm-4.7,18.4l-2.6,1.3l1.3,2.6l2.6,-1.3l-1.3,-2.6l0,0z" class="st1"/>
  <path id="svg_3" d="m77.7,10.9l-2.8,0l0,7.4l2.8,0l0,-7.4l0,0zm-2.8,-0.9l2.8,0l0,-1.9l-2.8,0l0,1.9l0,0zm0.7,13.2c-0.4,0 -0.7,0.1 -1,0.3c-0.3,0.2 -0.5,0.6 -0.8,1.1l0,-1.2l-2.7,0l0,7.4l2.8,0l0,-2.5c0,-1.2 0.1,-2 0.4,-2.4c0.2,-0.3 0.5,-0.5 0.9,-0.5c0.2,0 0.5,0.1 0.8,0.2l0.9,-2c-0.4,-0.3 -0.9,-0.4 -1.3,-0.4l0,0zm-1.7,-4.9l-2.7,-3.9l2.5,-3.5l-3.1,0l-1.4,2.1l-1.2,-2.1l-3.4,0l2.6,3.5l-2.7,3.9l3.1,0l1.6,-2.4l1.4,2.4l3.3,0l0,0zm-12.5,0l2.7,0c-0.1,-0.3 -0.2,-0.6 -0.3,-0.8c0,-0.2 -0.1,-0.5 -0.1,-0.8l0,-3.3c0,-0.3 -0.1,-0.7 -0.2,-1.1c-0.1,-0.4 -0.3,-0.7 -0.6,-0.9c-0.3,-0.3 -0.8,-0.5 -1.3,-0.6c-0.5,-0.1 -1.2,-0.1 -2.1,-0.1c-0.5,0 -1,0 -1.5,0.1c-0.5,0.1 -0.8,0.2 -1.1,0.3c-0.4,0.2 -0.6,0.4 -0.8,0.7c-0.2,0.3 -0.3,0.6 -0.4,1.1l2.7,0.3c0.1,-0.3 0.3,-0.5 0.4,-0.7c0.2,-0.1 0.6,-0.2 1,-0.2c0.4,0 0.6,0.1 0.8,0.2c0.1,0.1 0.2,0.4 0.2,0.7c-0.4,0.1 -0.7,0.3 -1,0.3c-0.3,0.1 -1,0.2 -2.1,0.5c-0.9,0.2 -1.5,0.4 -1.8,0.8c-0.3,0.4 -0.5,0.8 -0.5,1.4c0,0.6 0.2,1.1 0.7,1.5c0.5,0.4 1.1,0.6 2,0.6c0.7,0 1.3,-0.1 1.8,-0.3c0.4,-0.2 0.7,-0.4 1.1,-0.8c0,0.2 0.1,0.4 0.1,0.5c0.1,0.3 0.1,0.4 0.3,0.6l0,0zm-0.5,-3c0,0.4 -0.1,0.6 -0.2,0.9c-0.1,0.2 -0.3,0.4 -0.6,0.6c-0.3,0.2 -0.6,0.2 -0.9,0.2c-0.3,0 -0.5,-0.1 -0.7,-0.2c-0.2,-0.1 -0.2,-0.3 -0.2,-0.5c0,-0.2 0.1,-0.4 0.2,-0.5c0.2,-0.1 0.5,-0.3 1.1,-0.5c0.4,-0.1 0.8,-0.2 1.2,-0.4l0,0.4l0.1,0zm-9.6,3l2.8,0l0,-4.7c0,-1 -0.2,-1.7 -0.7,-2.2c-0.4,-0.5 -1.1,-0.7 -1.9,-0.7c-0.5,0 -1,0.1 -1.4,0.3c-0.4,0.2 -0.8,0.5 -1.2,1c-0.2,-0.4 -0.5,-0.7 -0.8,-0.9c-0.3,-0.2 -0.8,-0.3 -1.4,-0.3c-0.6,0 -1,0.1 -1.4,0.3c-0.4,0.2 -0.8,0.5 -1.2,1l0,-1.1l-2.7,0l0,7.4l2.8,0l0,-3.8c0,-0.6 0.1,-1 0.3,-1.2c0.2,-0.2 0.5,-0.4 0.8,-0.4c0.2,0 0.4,0.1 0.5,0.2c0.1,0.1 0.3,0.3 0.3,0.5c0,0.1 0.1,0.3 0.1,0.7l0,4.1l2.9,0l0,-3.8c0,-0.5 0.1,-0.9 0.3,-1.2c0.2,-0.2 0.5,-0.4 0.8,-0.4c0.3,0 0.5,0.1 0.7,0.4c0.1,0.2 0.2,0.4 0.2,0.7l0,4.1l0.2,0zm-8.2,5.9c-0.6,0.6 -0.9,1.6 -0.9,2.8c0,1.1 0.3,2 0.8,2.8c0.5,0.8 1.3,1.1 2.3,1.1c0.5,0 1,-0.1 1.4,-0.3c0.3,-0.2 0.6,-0.5 1,-0.9l0,1.1l2.7,0l0,-10.2l-2.9,0l0,3.5c-0.3,-0.3 -0.6,-0.5 -1,-0.7c-0.4,-0.1 -0.8,-0.2 -1.2,-0.2c-0.8,0 -1.6,0.3 -2.2,1l0,0zm2,2.9c0,-0.6 0.1,-1.1 0.3,-1.4c0.2,-0.3 0.5,-0.4 0.8,-0.4c0.4,0 0.7,0.1 0.9,0.4c0.2,0.3 0.4,0.7 0.4,1.3c0,0.6 -0.1,1.1 -0.4,1.4c-0.2,0.3 -0.5,0.4 -0.9,0.4c-0.3,0 -0.6,-0.1 -0.9,-0.4c-0.1,-0.3 -0.2,-0.7 -0.2,-1.3l0,0zm7.8,-2.8c-0.8,0.7 -1.1,1.7 -1.1,2.8c0,1.2 0.4,2.2 1.3,2.9c0.7,0.6 1.7,0.9 2.9,0.9c1.3,0 2.4,-0.4 3.1,-1.1c0.8,-0.7 1.1,-1.7 1.1,-2.8c0,-1 -0.3,-1.9 -0.9,-2.6c-0.8,-0.9 -1.9,-1.3 -3.4,-1.3c-1.2,0.1 -2.2,0.4 -3,1.2l0,0zm1.7,2.8c0,-0.6 0.1,-1.1 0.4,-1.5c0.3,-0.3 0.6,-0.5 1,-0.5c0.4,0 0.7,0.2 1,0.5c0.3,0.3 0.4,0.8 0.4,1.4c0,0.7 -0.1,1.2 -0.4,1.5c-0.3,0.3 -0.6,0.5 -1,0.5c-0.4,0 -0.7,-0.2 -1,-0.5c-0.3,-0.3 -0.4,-0.8 -0.4,-1.4l0,0zm7.8,-2.8c-0.8,0.7 -1.1,1.7 -1.1,2.8c0,1.2 0.4,2.2 1.3,2.9c0.7,0.6 1.7,0.9 2.9,0.9c1.3,0 2.4,-0.4 3.1,-1.1c0.8,-0.7 1.1,-1.7 1.1,-2.8c0,-1 -0.3,-1.9 -0.9,-2.6c-0.8,-0.9 -1.9,-1.3 -3.4,-1.3c-1.2,0.1 -2.2,0.4 -3,1.2l0,0zm1.7,2.8c0,-0.6 0.1,-1.1 0.4,-1.5c0.3,-0.3 0.6,-0.5 1,-0.5c0.4,0 0.7,0.2 1,0.5c0.3,0.3 0.4,0.8 0.4,1.4c0,0.7 -0.1,1.2 -0.4,1.5c-0.3,0.3 -0.6,0.5 -1,0.5c-0.4,0 -0.7,-0.2 -1,-0.5c-0.3,-0.3 -0.4,-0.8 -0.4,-1.4l0,0z" class="st1"/>
 </g>
</svg>