<?xml version="1.0" encoding="utf-8"?>
<!-- Generator: Adobe Illustrator 22.1.0, SVG Export Plug-In . SVG Version: 6.00 Build 0)  -->
<svg version="1.1" id="Layer_1" xmlns="http://www.w3.org/2000/svg" xmlns:xlink="http://www.w3.org/1999/xlink" x="0px" y="0px"
	 viewBox="0 0 411.5 595.3" xml:space="preserve">
<style type="text/css">
	.st0{fill:#ED1C24;}
	.st1{fill:#FFFFFF;}
</style>
<polygon class="st0" points="173.3,281.6 205.4,281.6 205.4,313.6 173.3,313.6 173.3,281.6 "/>
<path class="st1" d="M204.9,306.7l0.9,1.7l-17.9,9.2l-9.2-17.9l1.7-0.9l8.3,16.2L204.9,306.7L204.9,306.7z M189.9,278.3l-17.9,9.2
	l0.9,1.7l16.2-8.3l8.3,16.2l1.7-0.9L189.9,278.3L189.9,278.3z M185.2,296.7l-2.6,1.3l1.3,2.6l2.6-1.3L185.2,296.7L185.2,296.7z"/>
<path class="st1" d="M246.7,287.9h-2.8v7.4h2.8V287.9L246.7,287.9z M243.9,287h2.8v-1.9h-2.8V287L243.9,287z M244.6,300.2
	c-0.4,0-0.7,0.1-1,0.3c-0.3,0.2-0.5,0.6-0.8,1.1v-1.2h-2.7v7.4h2.8v-2.5c0-1.2,0.1-2,0.4-2.4c0.2-0.3,0.5-0.5,0.9-0.5
	c0.2,0,0.5,0.1,0.8,0.2l0.9-2C245.5,300.3,245,300.2,244.6,300.2L244.6,300.2z M242.9,295.3l-2.7-3.9l2.5-3.5h-3.1l-1.4,2.1
	l-1.2-2.1h-3.4l2.6,3.5l-2.7,3.9h3.1l1.6-2.4l1.4,2.4H242.9L242.9,295.3z M230.4,295.3h2.7c-0.1-0.3-0.2-0.6-0.3-0.8
	c0-0.2-0.1-0.5-0.1-0.8v-3.3c0-0.3-0.1-0.7-0.2-1.1c-0.1-0.4-0.3-0.7-0.6-0.9c-0.3-0.3-0.8-0.5-1.3-0.6c-0.5-0.1-1.2-0.1-2.1-0.1
	c-0.5,0-1,0-1.5,0.1c-0.5,0.1-0.8,0.2-1.1,0.3c-0.4,0.2-0.6,0.4-0.8,0.7c-0.2,0.3-0.3,0.6-0.4,1.1l2.7,0.3c0.1-0.3,0.3-0.5,0.4-0.7
	c0.2-0.1,0.6-0.2,1-0.2c0.4,0,0.6,0.1,0.8,0.2c0.1,0.1,0.2,0.4,0.2,0.7c-0.4,0.1-0.7,0.3-1,0.3c-0.3,0.1-1,0.2-2.1,0.5
	c-0.9,0.2-1.5,0.4-1.8,0.8c-0.3,0.4-0.5,0.8-0.5,1.4c0,0.6,0.2,1.1,0.7,1.5c0.5,0.4,1.1,0.6,2,0.6c0.7,0,1.3-0.1,1.8-0.3
	c0.4-0.2,0.7-0.4,1.1-0.8c0,0.2,0.1,0.4,0.1,0.5C230.2,295,230.2,295.1,230.4,295.3L230.4,295.3z M229.9,292.3
	c0,0.4-0.1,0.6-0.2,0.9c-0.1,0.2-0.3,0.4-0.6,0.6c-0.3,0.2-0.6,0.2-0.9,0.2c-0.3,0-0.5-0.1-0.7-0.2c-0.2-0.1-0.2-0.3-0.2-0.5
	c0-0.2,0.1-0.4,0.2-0.5c0.2-0.1,0.5-0.3,1.1-0.5c0.4-0.1,0.8-0.2,1.2-0.4V292.3L229.9,292.3z M220.3,295.3h2.8v-4.7
	c0-1-0.2-1.7-0.7-2.2c-0.4-0.5-1.1-0.7-1.9-0.7c-0.5,0-1,0.1-1.4,0.3c-0.4,0.2-0.8,0.5-1.2,1c-0.2-0.4-0.5-0.7-0.8-0.9
	c-0.3-0.2-0.8-0.3-1.4-0.3c-0.6,0-1,0.1-1.4,0.3c-0.4,0.2-0.8,0.5-1.2,1v-1.1h-2.7v7.4h2.8v-3.8c0-0.6,0.1-1,0.3-1.2
	c0.2-0.2,0.5-0.4,0.8-0.4c0.2,0,0.4,0.1,0.5,0.2c0.1,0.1,0.3,0.3,0.3,0.5c0,0.1,0.1,0.3,0.1,0.7v4.1h2.9v-3.8c0-0.5,0.1-0.9,0.3-1.2
	c0.2-0.2,0.5-0.4,0.8-0.4c0.3,0,0.5,0.1,0.7,0.4c0.1,0.2,0.2,0.4,0.2,0.7V295.3L220.3,295.3z M212.1,301.2c-0.6,0.6-0.9,1.6-0.9,2.8
	c0,1.1,0.3,2,0.8,2.8c0.5,0.8,1.3,1.1,2.3,1.1c0.5,0,1-0.1,1.4-0.3c0.3-0.2,0.6-0.5,1-0.9v1.1h2.7v-10.2h-2.9v3.5
	c-0.3-0.3-0.6-0.5-1-0.7c-0.4-0.1-0.8-0.2-1.2-0.2C213.5,300.2,212.7,300.5,212.1,301.2L212.1,301.2z M214.1,304.1
	c0-0.6,0.1-1.1,0.3-1.4c0.2-0.3,0.5-0.4,0.8-0.4c0.4,0,0.7,0.1,0.9,0.4c0.2,0.3,0.4,0.7,0.4,1.3c0,0.6-0.1,1.1-0.4,1.4
	c-0.2,0.3-0.5,0.4-0.9,0.4c-0.3,0-0.6-0.1-0.9-0.4C214.2,305.1,214.1,304.7,214.1,304.1L214.1,304.1z M221.9,301.3
	c-0.8,0.7-1.1,1.7-1.1,2.8c0,1.2,0.4,2.2,1.3,2.9c0.7,0.6,1.7,0.9,2.9,0.9c1.3,0,2.4-0.4,3.1-1.1c0.8-0.7,1.1-1.7,1.1-2.8
	c0-1-0.3-1.9-0.9-2.6c-0.8-0.9-1.9-1.3-3.4-1.3C223.7,300.2,222.7,300.5,221.9,301.3L221.9,301.3z M223.6,304.1
	c0-0.6,0.1-1.1,0.4-1.5c0.3-0.3,0.6-0.5,1-0.5c0.4,0,0.7,0.2,1,0.5c0.3,0.3,0.4,0.8,0.4,1.4c0,0.7-0.1,1.2-0.4,1.5
	c-0.3,0.3-0.6,0.5-1,0.5c-0.4,0-0.7-0.2-1-0.5C223.7,305.2,223.6,304.7,223.6,304.1L223.6,304.1z M231.4,301.3
	c-0.8,0.7-1.1,1.7-1.1,2.8c0,1.2,0.4,2.2,1.3,2.9c0.7,0.6,1.7,0.9,2.9,0.9c1.3,0,2.4-0.4,3.1-1.1c0.8-0.7,1.1-1.7,1.1-2.8
	c0-1-0.3-1.9-0.9-2.6c-0.8-0.9-1.9-1.3-3.4-1.3C233.2,300.2,232.2,300.5,231.4,301.3L231.4,301.3z M233.1,304.1
	c0-0.6,0.1-1.1,0.4-1.5c0.3-0.3,0.6-0.5,1-0.5c0.4,0,0.7,0.2,1,0.5c0.3,0.3,0.4,0.8,0.4,1.4c0,0.7-0.1,1.2-0.4,1.5
	c-0.3,0.3-0.6,0.5-1,0.5c-0.4,0-0.7-0.2-1-0.5C233.2,305.2,233.1,304.7,233.1,304.1L233.1,304.1z"/>
</svg>
