<svg xmlns="http://www.w3.org/2000/svg" width="58.467" height="58.579" viewBox="0 0 58.467 58.579">
  <g id="phone-call" transform="translate(3.071 3)">
    <g id="Group_19" data-name="Group 19" transform="translate(0 0)">
      <path id="Path_68" data-name="Path 68" d="M51.562,38.535l-7.327-7.327a4.874,4.874,0,0,0-8.113,1.832,4.987,4.987,0,0,1-5.757,3.14c-5.234-1.308-12.3-8.113-13.608-13.608a4.743,4.743,0,0,1,3.14-5.757A4.874,4.874,0,0,0,21.728,8.7L14.4,1.374a5.227,5.227,0,0,0-7.066,0L2.363,6.346c-4.972,5.234.523,19.1,12.823,31.4s26.17,18.057,31.4,12.823L51.562,45.6A5.226,5.226,0,0,0,51.562,38.535Z" transform="translate(-0.539 0)" fill="none" stroke="red" stroke-width="6"/>
    </g>
  </g>
</svg>
