<svg xmlns="http://www.w3.org/2000/svg" width="83.952" height="83.999" viewBox="0 0 83.952 83.999">
  <g id="quality" transform="translate(0.13 0.13)">
    <path id="Path_74" data-name="Path 74" d="M191.561,193.1,178.98,204.982l-6.038-6.212a1.74,1.74,0,0,0-2.5,2.425l7.242,7.434a1.772,1.772,0,0,0,2.461.052l13.838-13.052a1.739,1.739,0,0,0,.07-2.461,1.781,1.781,0,0,0-2.5-.07Zm0,0" transform="translate(-140.371 -159.009)" stroke="#000" stroke-width="0.2"/>
    <path id="Path_75" data-name="Path 75" d="M116.945,90.551a26.071,26.071,0,1,0,26.071,26.07,26.1,26.1,0,0,0-26.071-26.07Zm0,48.652a22.581,22.581,0,1,1,22.581-22.581A22.607,22.607,0,0,1,116.945,139.2Zm0,0" transform="translate(-75.091 -74.749)" stroke="#000" stroke-width="0.2"/>
    <path id="Path_76" data-name="Path 76" d="M78.157,32.273l.576-10.348a1.741,1.741,0,0,0-.96-1.658L68.56,15.608,63.9,6.394a1.771,1.771,0,0,0-1.658-.96l-10.366.559L43.239.287a1.744,1.744,0,0,0-1.92,0L32.682,5.993,22.334,5.417a1.738,1.738,0,0,0-1.658.96l-4.66,9.214L6.8,20.25a1.768,1.768,0,0,0-.96,1.658l.575,10.348L.713,40.894a1.744,1.744,0,0,0,0,1.92L6.4,51.469,5.826,61.817a1.74,1.74,0,0,0,.96,1.658L16,68.134l4.659,9.214a1.768,1.768,0,0,0,1.658.96l10.348-.576L41.3,83.438a1.7,1.7,0,0,0,1.92,0l8.638-5.706,10.348.576a1.742,1.742,0,0,0,1.658-.96l4.659-9.214,9.214-4.659a1.77,1.77,0,0,0,.96-1.658l-.576-10.348,5.706-8.638a1.744,1.744,0,0,0,0-1.92ZM74.911,50.038a1.639,1.639,0,0,0-.279,1.065l.541,9.789-8.707,4.4a1.722,1.722,0,0,0-.768.768l-4.4,8.707-9.789-.541a1.906,1.906,0,0,0-1.065.279L42.279,79.9,34.113,74.5a1.728,1.728,0,0,0-.96-.3h-.087l-9.79.541-4.4-8.708a1.719,1.719,0,0,0-.768-.768l-8.725-4.38L9.927,51.1a1.907,1.907,0,0,0-.279-1.065L4.255,41.871,9.647,33.7a1.633,1.633,0,0,0,.279-1.064l-.541-9.79,8.708-4.4a1.721,1.721,0,0,0,.768-.768l4.4-8.708,9.79.541a1.915,1.915,0,0,0,1.065-.279l8.166-5.392,8.167,5.392a1.636,1.636,0,0,0,1.065.279L61.3,8.977l4.4,8.708a1.721,1.721,0,0,0,.768.768l8.707,4.4-.541,9.79a1.911,1.911,0,0,0,.279,1.064L80.3,41.871Zm0,0" transform="translate(-0.425 0.001)" stroke="#000" stroke-width="0.2"/>
  </g>
</svg>
