<svg xmlns="http://www.w3.org/2000/svg" width="86.415" height="86.14" viewBox="0 0 86.415 86.14">
  <g id="sketch" transform="translate(0.25 0.25)">
    <g id="Group_4" data-name="Group 4" transform="translate(60.496 60.397)">
      <g id="Group_3" data-name="Group 3">
        <path id="Path_36" data-name="Path 36" d="M376.042,360.845a1.261,1.261,0,0,0-1.374.273L360.887,374.9a1.261,1.261,0,0,0,.892,2.153h13.781a1.261,1.261,0,0,0,1.261-1.261V362.01A1.261,1.261,0,0,0,376.042,360.845ZM364.822,374.53l9.476-9.476v9.476Z" transform="translate(-360.517 -360.749)" stroke="#000" stroke-width="0.5"/>
      </g>
    </g>
    <g id="Group_6" data-name="Group 6" transform="translate(0 0)">
      <g id="Group_5" data-name="Group 5" transform="translate(0 0)">
        <path id="Path_37" data-name="Path 37" d="M85.137,41.1a1.261,1.261,0,0,0-1.374.273l-3.777,3.777V19.471a1.261,1.261,0,0,0-1.261-1.261H69.036l3.517-3.517,0,0L75.943,11.3a3.846,3.846,0,0,0,0-5.438L72.024,1.946a3.846,3.846,0,0,0-5.438,0L63.2,5.337l-4.1,4.1L50.322,18.21H11.179V5.735A1.261,1.261,0,0,0,9.918,4.474,9.93,9.93,0,0,0,0,14.392v53.56a1.264,1.264,0,0,0,.03.271A9.551,9.551,0,0,0,9.553,77.05H48.087l-7.257,7.257a1.261,1.261,0,0,0,.892,2.153H84.654A1.261,1.261,0,0,0,85.915,85.2V42.266A1.261,1.261,0,0,0,85.137,41.1ZM68.37,3.73a1.324,1.324,0,0,1,1.871,0L74.16,7.649a1.325,1.325,0,0,1,0,1.871l-2.5,2.5-5.79-5.79ZM64.088,8.012l5.79,5.79-2.314,2.314-5.79-5.79ZM83.394,56.435H81.067a1.261,1.261,0,1,0,0,2.522h2.327v3.8H81.067a1.261,1.261,0,1,0,0,2.522h2.327v3.8H81.067a1.261,1.261,0,0,0,0,2.522h2.327v3.8H81.067a1.261,1.261,0,1,0,0,2.522h2.327v6.014H44.765L57.5,71.2a1.261,1.261,0,0,0-1.784-1.783l-5.111,5.111H9.553a6.991,6.991,0,0,1-7.025-6.8q.011-.359.056-.712v0q.021-.167.05-.333l.007-.038q.026-.148.059-.294c.006-.027.012-.054.019-.081q.029-.124.062-.246c.012-.044.025-.088.038-.132.018-.064.038-.128.058-.191s.042-.126.064-.188c.015-.044.03-.088.047-.131.031-.083.063-.164.1-.245l.029-.07c.043-.1.088-.2.135-.3l.006-.013a7.424,7.424,0,0,1,5.16-4.035l.019,0c.1-.021.21-.04.316-.057l.053-.009c.1-.015.193-.026.289-.037l.082-.01c.093-.009.188-.016.282-.021l.09-.007q.185-.009.373-.009A1.261,1.261,0,0,0,11.179,59.3V50.152a1.261,1.261,0,0,0-2.522,0v7.962a9.849,9.849,0,0,0-5.665,2.741c-.164.16-.319.327-.471.5V14.392A7.409,7.409,0,0,1,8.657,7.1v38h0a1.261,1.261,0,1,0,2.522,0h0V20.733H47.8L40.829,27.7a1.261,1.261,0,1,0,1.783,1.783l9.124-9.124h0l8.253-8.253,5.79,5.79-.679.679,0,0L39.672,44.007l-5.79-5.79,5.012-5.012a1.261,1.261,0,0,0-1.783-1.783l-5.9,5.9a1.267,1.267,0,0,0-.089.1c-.009.011-.017.024-.026.036s-.035.047-.052.072-.018.029-.026.044-.027.047-.04.072-.015.032-.023.048-.022.05-.031.075c0,.009-.008.017-.011.026l-2.457,6.96L26.778,49.5a1.275,1.275,0,0,0-.05.192H22.535a1.261,1.261,0,1,0,0,2.522H57.457a1.261,1.261,0,1,0,0-2.522H32.4l7.69-2.715.019-.008c.03-.011.059-.023.088-.037l.034-.016c.03-.015.06-.032.089-.05l.028-.017c.03-.019.06-.041.089-.063l.022-.016a1.266,1.266,0,0,0,.1-.091l25.95-25.95h10.95v26.94L59.425,65.711a1.261,1.261,0,0,0,0,1.783,1.287,1.287,0,0,0,.1.087,1.26,1.26,0,0,0,1.688-.087h0L83.394,45.31ZM37.366,45.267l-3.612,1.275-2.407-2.407,1.275-3.612Z" transform="translate(0 -0.82)" stroke="#000" stroke-width="0.5"/>
      </g>
    </g>
  </g>
</svg>
