<svg xmlns="http://www.w3.org/2000/svg" width="82" height="82" viewBox="0 0 82 82"><g transform="translate(-1838 -327)"><rect width="82" height="82" transform="translate(1838 327)" fill="#ff000a"/><g transform="translate(1858.869 347.132)"><g transform="translate(0 0)"><path d="M40.131,29.9l-5.686-5.686a3.782,3.782,0,0,0-6.3,1.421,3.87,3.87,0,0,1-4.468,2.437c-4.061-1.015-9.544-6.3-10.56-10.56a3.68,3.68,0,0,1,2.437-4.468,3.782,3.782,0,0,0,1.421-6.3L11.3,1.066a4.056,4.056,0,0,0-5.483,0L1.954,4.924C-1.9,8.986,2.36,19.748,11.9,29.293S32.212,43.3,36.273,39.243l3.858-3.858A4.056,4.056,0,0,0,40.131,29.9Z" transform="translate(-0.539 0)" fill="none" stroke="#fff" stroke-width="4"/></g></g></g></svg>