<svg id="tools" xmlns="http://www.w3.org/2000/svg" width="83.318" height="83.32" viewBox="0 0 83.318 83.32">
  <path id="Path_82" data-name="Path 82" d="M338.967,155.148a1.627,1.627,0,1,0,1.627,1.627A1.627,1.627,0,0,0,338.967,155.148Zm0,0" transform="translate(-282.524 -129.9)"/>
  <path id="Path_83" data-name="Path 83" d="M157.272,336.84a1.627,1.627,0,1,0,1.627,1.627A1.627,1.627,0,0,0,157.272,336.84Zm0,0" transform="translate(-130.398 -282.024)"/>
  <path id="Path_84" data-name="Path 84" d="M81.8,10.011a1.626,1.626,0,0,0-1.523.439l-6.746,6.8H70.291l-3.56-3.689V10.281l6.65-6.749A1.627,1.627,0,0,0,72.741.848,16.286,16.286,0,0,0,51.822,20.489L39.835,32.476,19.865,12.46V8.531a1.627,1.627,0,0,0-.79-1.4L7.568.231A1.626,1.626,0,0,0,5.58.476l-4.6,4.6A1.629,1.629,0,0,0,.733,7.066l6.9,11.506a1.627,1.627,0,0,0,1.395.79h3.927L32.931,39.38,20.99,51.322A16.283,16.283,0,0,0,1.348,72.241a1.627,1.627,0,0,0,2.7.627l6.746-6.8h3.252l3.705,3.705v3.252l-6.8,6.746a1.627,1.627,0,0,0,.627,2.7,16.277,16.277,0,0,0,18.4-5.928A16.092,16.092,0,0,0,32.5,62.827l9.591-9.591,2.2,2.386-1.008,1.008a1.628,1.628,0,0,0,2.3,2.3l.913-.913L67.1,80.41l.047.048a9.765,9.765,0,0,0,13.81-13.81l-.051-.048L58.483,46.027l.9-.9a1.627,1.627,0,1,0-2.3-2.3l-1,1-2.391-2.194,9.637-9.637a16.282,16.282,0,0,0,19.64-20.918A1.626,1.626,0,0,0,81.8,10.011Zm-67.01,6.577a1.611,1.611,0,0,0-1.151-.462H9.954L4.178,6.481,6.983,3.676,16.61,9.453v3.681a1.627,1.627,0,0,0,.475,1.149L37.534,34.778l-2.3,2.3ZM56.179,48.331l22.5,20.643a6.51,6.51,0,0,1-9.208,9.206L48.793,55.716Zm-2.4-2.2L46.586,53.32l-2.2-2.386,7-7ZM67.545,29.291a13.005,13.005,0,0,1-4.159-.678,1.63,1.63,0,0,0-1.67.392L29.5,61.215a1.627,1.627,0,0,0-.392,1.671,13.032,13.032,0,0,1-12.34,17.177,13.329,13.329,0,0,1-1.419-.076l5.169-5.129A1.627,1.627,0,0,0,21,73.7V69.1a1.627,1.627,0,0,0-.477-1.151L15.868,63.29a1.627,1.627,0,0,0-1.151-.477h-4.6a1.629,1.629,0,0,0-1.156.481L3.83,68.463a13.165,13.165,0,0,1-.076-1.419A13.032,13.032,0,0,1,20.932,54.7a1.626,1.626,0,0,0,1.67-.392L54.813,22.1a1.627,1.627,0,0,0,.392-1.67A13.03,13.03,0,0,1,67.544,3.254a13.3,13.3,0,0,1,1.461.081L63.944,8.472a1.626,1.626,0,0,0-.468,1.142v4.6a1.625,1.625,0,0,0,.456,1.13l4.5,4.659a1.626,1.626,0,0,0,1.171.5h4.6a1.626,1.626,0,0,0,1.155-.481l5.128-5.168a13.166,13.166,0,0,1,.076,1.419A13.033,13.033,0,0,1,67.545,29.291Zm0,0" transform="translate(-0.5 0.001)"/>
  <path id="Path_85" data-name="Path 85" d="M204.765,183.9,184.4,204.266a1.627,1.627,0,0,0,2.3,2.3L207.066,186.2a1.627,1.627,0,0,0-2.3-2.3Zm0,0" transform="translate(-154.075 -153.576)"/>
  <path id="Path_86" data-name="Path 86" d="M360.426,362.473a1.627,1.627,0,1,0,2.3-2.3l-14.668-14.621a1.627,1.627,0,0,0-2.3,2.305Zm0,0" transform="translate(-289.171 -288.917)"/>
</svg>
